<svg width="640" height="480" xmlns="http://www.w3.org/2000/svg" xmlns:svg="http://www.w3.org/2000/svg">
 <!-- Created with SVG-edit - https://github.com/SVG-Edit/svgedit-->
 <g class="layer">
  <title>Layer 1</title>
  <path d="m549.8,238.81l-94.23,33.51l0,-67.02l94.23,33.51zm-68.41,-165.11l-42.92,90.33l-47.39,-47.39l90.31,-42.94zm-165.09,-68.39l33.51,94.23l-67.02,0l33.51,-94.23zm-165.12,68.39l90.33,42.94l-47.39,47.39l-42.94,-90.33zm-68.39,165.11l94.23,-33.51l0,67.02l-94.23,-33.51zm68.39,165.09l42.94,-90.31l47.39,47.39l-90.33,42.92zm165.12,68.41l-33.51,-94.23l67.02,0l-33.51,94.23zm165.09,-68.41l-90.31,-42.92l47.39,-47.39l42.92,90.31zm-281.84,-165.09l0,0c0,-64.48 52.27,-116.75 116.75,-116.75c64.48,0 116.75,52.27 116.75,116.75c0,64.48 -52.27,116.75 -116.75,116.75c-64.48,0 -116.75,-52.27 -116.75,-116.75z" fill="#ffffaa" id="svg_5" stroke="#000000"/>
  <text fill="#000000" font-family="Cursive" font-size="24" id="svg_9" stroke="#000000" stroke-width="0" text-anchor="middle" transform="matrix(2.34004 0 0 2.74196 -483.793 -420.61)" x="342" xml:space="preserve" y="247.73">Welcome!</text>
 </g>
</svg>